# xmcd CD database file generated by Grip 3.0.0
# 
# Track frame offsets:
#       182
#       14775
#       32360
# 
# Disc length: 644 seconds
# 
# Revision: 0
# Processed by: cddbd v1.4PL0 Copyright (c) Steve Scherf et al.
# Submitted via: Grip 3.0.0
# 
DISCID=1b028203
DTITLE=Fountains of Wayne - Sink to the Bottom
DYEAR=1900
DGENRE=Rock
TTITLE0=Sink to the Bottom
TTITLE1=Can't Get it Out of my Head (Non-LP Bonus Track)
TTITLE2=Kid Gloves (Non-LP Bonus Track)
EXTD=
EXTT0=
EXTT1=
EXTT2=
PLAYORDER=
